<?xml version="1.0" encoding="iso-8859-1"?>
<!-- Generator: Adobe Illustrator 17.1.0, SVG Export Plug-In . SVG Version: 6.00 Build 0)  -->
<!DOCTYPE svg PUBLIC "-//W3C//DTD SVG 1.1//EN" "http://www.w3.org/Graphics/SVG/1.1/DTD/svg11.dtd">
<svg xmlns="http://www.w3.org/2000/svg" xmlns:xlink="http://www.w3.org/1999/xlink" version="1.1" id="Capa_1" x="0px" y="0px" viewBox="0 0 380.65 380.65" style="enable-background:new 0 0 380.65 380.65;" xml:space="preserve" width="512px" height="512px">
<path d="M138.13,355.988c-1.338,3.641-4.783,5.897-8.448,5.897c-1.031,0-2.08-0.179-3.104-0.555  c-11.646-4.281-22.834-9.853-33.255-16.561c-4.18-2.69-5.387-8.259-2.697-12.439c2.689-4.181,8.259-5.387,12.439-2.697  c9.314,5.995,19.314,10.975,29.724,14.802C137.454,346.151,139.846,351.323,138.13,355.988z M25.157,230.493  c4.898-0.847,8.182-5.505,7.334-10.402c-1.892-10.936-2.58-22.086-2.044-33.141c0.241-4.965-3.589-9.185-8.554-9.425  c-4.972-0.246-9.184,3.588-9.425,8.554c-0.6,12.371,0.169,24.846,2.286,37.08c0.757,4.379,4.56,7.467,8.857,7.467  C24.121,230.626,24.638,230.583,25.157,230.493z M245.006,76.911c0.789,0.325,1.572,0.659,2.349,0.999  c1.176,0.515,2.4,0.759,3.606,0.759c3.466,0,6.769-2.014,8.249-5.391c1.995-4.553-0.08-9.861-4.632-11.855  c-0.902-0.395-1.81-0.783-2.726-1.159c-4.597-1.891-9.856,0.303-11.747,4.901C238.215,69.761,240.409,75.02,245.006,76.911z   M247.86,46.369c10.414,3.829,20.413,8.809,29.722,14.801c1.507,0.97,3.194,1.434,4.863,1.434c2.958,0,5.855-1.457,7.576-4.129  c2.69-4.18,1.484-9.749-2.695-12.439c-10.416-6.706-21.604-12.277-33.253-16.561c-4.666-1.713-9.837,0.676-11.553,5.341  C240.804,39.48,243.195,44.653,247.86,46.369z M328,173.396c-4.926,0.665-8.38,5.197-7.716,10.123  c0.114,0.845,0.214,1.691,0.309,2.535c0.515,4.599,4.411,7.999,8.933,7.999c0.334,0,0.673-0.019,1.014-0.057  c4.939-0.553,8.495-5.006,7.941-9.946c-0.109-0.978-0.226-1.957-0.358-2.936C337.457,176.187,332.928,172.74,328,173.396z   M51.437,217.491c0.402,0,0.809-0.027,1.218-0.083c4.926-0.667,8.378-5.2,7.711-10.125c-0.113-0.838-0.213-1.677-0.305-2.513  c-0.543-4.941-4.99-8.509-9.93-7.963c-4.941,0.543-8.506,4.989-7.963,9.93c0.108,0.985,0.227,1.973,0.361,2.96  C43.141,214.213,47.002,217.491,51.437,217.491z M365.896,167.645c-0.847-4.898-5.503-8.185-10.402-7.334  c-4.898,0.847-8.182,5.505-7.334,10.402c1.891,10.929,2.579,22.079,2.044,33.142c-0.24,4.965,3.591,9.184,8.556,9.424  c0.148,0.007,0.295,0.01,0.441,0.01c4.771,0,8.75-3.749,8.982-8.566C368.781,192.346,368.011,179.871,365.896,167.645z   M363.533,255.058c2.688,9.017,1.54,18.849-3.152,26.975l-3.991,6.911c-4.692,8.127-12.633,14.039-21.787,16.219  c-8.68,2.066-17.447,0.594-24.687-4.145l-84.313-55.19l5.64,100.61c0.484,8.642-2.625,16.972-8.755,23.455  c-6.465,6.837-15.554,10.758-24.938,10.758h-7.98c-9.384,0-18.475-3.921-24.939-10.759c-6.13-6.483-9.24-14.812-8.755-23.453  l5.638-100.609l-84.309,55.188c-7.243,4.74-16.013,6.212-24.691,4.145c-9.153-2.181-17.094-8.092-21.786-16.218l-3.99-6.911  c-4.691-8.126-5.84-17.959-3.152-26.976c2.549-8.55,8.207-15.408,15.932-19.31l89.95-45.421l-89.949-45.421  c-7.725-3.901-13.383-10.759-15.932-19.309c-2.689-9.018-1.54-18.85,3.151-26.977l3.991-6.911  c4.691-8.126,12.632-14.038,21.786-16.218c8.677-2.067,17.448-0.596,24.69,4.145l84.31,55.188l-5.638-100.609  c-0.484-8.641,2.625-16.97,8.755-23.453C171.096,3.921,180.187,0,189.571,0h7.98c9.383,0,18.473,3.921,24.938,10.758  c6.13,6.483,9.239,14.813,8.755,23.455l-5.64,100.61l84.313-55.189c7.24-4.74,16.007-6.212,24.687-4.145  c9.154,2.18,17.095,8.092,21.788,16.219l3.99,6.911c4.691,8.126,5.84,17.959,3.151,26.977c-2.55,8.551-8.208,15.408-15.933,19.309  l-89.95,45.421l89.95,45.421C355.326,239.648,360.984,246.507,363.533,255.058z M160.128,225.223  c-6.645-6.334-11.329-14.431-13.5-23.398l-98.996,49.989c-3.262,1.648-5.676,4.625-6.796,8.385  c-1.281,4.296-0.737,8.974,1.491,12.833l3.99,6.911c2.229,3.86,6.008,6.669,10.369,7.708c3.814,0.908,7.604,0.307,10.662-1.695  L160.128,225.223z M160.128,155.427L67.347,94.694c-2.128-1.393-4.609-2.108-7.207-2.108c-1.136,0-2.294,0.137-3.455,0.413  c-4.361,1.039-8.14,3.848-10.368,7.708l-3.99,6.911c-2.229,3.86-2.772,8.537-1.491,12.833c1.121,3.76,3.535,6.737,6.796,8.385  l98.995,49.989C148.799,169.859,153.484,161.761,160.128,155.427z M173.848,33.206l6.206,110.741  c3.938-1.145,8.026-1.786,12.184-1.898l0.003,0c0.025,0,0.048,0.002,0.077-0.002c0.015,0,0.031-0.001,0.046-0.001  c0.038-0.001,0.078-0.002,0.119-0.003c0.018,0,0.039-0.001,0.059-0.001c0.021-0.001,0.037,0,0.056-0.001  c0.017-0.001,0.036,0,0.054-0.001c0.02,0,0.041-0.002,0.062-0.001c0.017,0,0.036,0,0.054-0.001c0.018,0,0.042,0,0.061-0.001  c0.016-0.001,0.034,0,0.052,0c0.019,0,0.042-0.001,0.063-0.001c0.015,0,0.034,0,0.05,0c0.019,0,0.042,0,0.063-0.001  c0.016-0.002,0.031,0,0.05,0c0.021,0,0.042,0,0.062,0c0.028,0.004,0.036,0,0.052,0c0.017-0.001,0.038,0,0.055,0  c0.02,0.001,0.039,0,0.059,0c0.019,0,0.038,0,0.053,0c0.021-0.001,0.04,0,0.061,0c0.019,0,0.034,0,0.051,0  c0.02,0.001,0.042,0,0.063,0c0.021,0,0.041,0.001,0.063,0c0.017,0,0.036,0.001,0.051,0c0.021,0,0.04-0.001,0.06,0  c0.016,0,0.034-0.001,0.053,0c0.019,0,0.041,0.001,0.059,0s0.036,0,0.055,0c0.039,0,0.076,0.001,0.113,0.001  c0.017,0,0.042,0.003,0.05,0c0.02,0,0.042,0,0.063,0.001c0.018,0,0.027,0.004,0.05,0c0.02,0,0.041,0.002,0.061,0.001  c0.018,0,0.035,0,0.053,0c0.02,0,0.04,0.001,0.056,0.001c0.018,0,0.039,0,0.057,0.001c0.016,0,0.022-0.01,0.052,0.001  c0.021,0,0.042,0,0.062,0.001c0.018,0.001,0.037,0.003,0.051,0.001c0.021,0,0.04,0,0.061,0.001c0.018,0,0.036,0.002,0.053,0.001  c0.021,0,0.041,0.001,0.059,0.001c0.018,0.001,0.037,0.002,0.054,0.001c0.019,0,0.04-0.001,0.059,0.001  c0.019,0,0.039,0.002,0.058,0.001c0.015,0,0.029,0,0.048,0.001c0.022,0,0.046,0.002,0.067,0.002c0.016,0,0.036,0.001,0.052,0.001  c0.022,0,0.042,0.002,0.063,0.002c0.017,0.001,0.033,0.001,0.049,0.002c0.027,0.001,0.049,0.001,0.071,0.002  c0.004,0,0.006,0,0.011,0c4.022,0.141,7.977,0.777,11.79,1.886l6.208-110.741c0.205-3.65-1.167-7.23-3.862-10.081  C206.33,19.868,202.008,18,197.551,18h-7.98c-4.458,0-8.78,1.868-11.86,5.126C175.015,25.977,173.643,29.556,173.848,33.206z   M213.272,347.445l-6.208-110.741c-3.851,1.12-7.846,1.758-11.908,1.89h-0.003c-0.04,0.001-0.075-0.006-0.119,0.004  c-0.015,0-0.032,0-0.046,0.001c-0.024,0-0.043,0.002-0.07,0.002c-0.016,0.001-0.035,0.001-0.05,0.001  c-0.021,0.001-0.046,0.001-0.067,0.002c-0.017,0-0.034,0-0.05,0.001c-0.021,0.001-0.044,0.001-0.064,0.001  c-0.017,0.001-0.034,0-0.051,0.001c-0.021,0-0.043,0-0.064,0.001c-0.015,0-0.035,0-0.05,0.001c-0.018,0.001-0.037,0-0.057,0.001  c-0.018,0-0.038,0.001-0.058,0.001c-0.019,0-0.038,0-0.055,0.001c-0.021-0.002-0.038,0-0.059,0.001c-0.018,0-0.035,0-0.052,0  c-0.02,0-0.042,0-0.062,0.001c-0.016,0.001-0.034,0-0.05,0c-0.018,0-0.042,0-0.063,0.001c-0.019,0-0.032,0-0.05,0  c-0.019,0-0.042,0-0.062,0c-0.012,0.006-0.035,0-0.052,0c-0.02,0.001-0.039,0-0.055,0c-0.018,0-0.039,0-0.059,0  c-0.017,0-0.037,0-0.053,0c-0.023,0.003-0.04,0.001-0.061,0c-0.016,0-0.034,0-0.051,0c-0.022,0-0.042,0-0.063,0  c-0.021,0-0.043,0-0.063,0c-0.017,0-0.033,0-0.051,0c-0.021,0-0.038-0.001-0.061,0c-0.016,0-0.036-0.002-0.053,0  c-0.02,0-0.042-0.002-0.059,0c-0.016,0-0.035,0.002-0.055,0c-0.016,0-0.008,0.005-0.052,0c-0.02-0.001-0.043,0-0.062,0  c-0.017-0.001-0.034-0.001-0.05,0c-0.021-0.001-0.043-0.002-0.064-0.001c-0.016,0-0.033,0-0.049,0c-0.021,0-0.041-0.001-0.063-0.001  c-0.017,0-0.036-0.001-0.052,0c-0.02-0.001-0.043-0.001-0.062-0.001c-0.018,0-0.035-0.001-0.053-0.001c-0.021,0-0.04,0-0.063-0.001  c-0.02,0-0.035-0.001-0.053-0.001c-0.021-0.001-0.042-0.001-0.062-0.001c-0.019,0-0.036-0.001-0.054-0.001  c-0.04-0.002-0.079-0.002-0.118-0.003c-0.015,0-0.029-0.001-0.045-0.001c-0.028-0.004-0.051-0.001-0.077-0.002l-0.003,0  c-4.157-0.112-8.246-0.753-12.184-1.898l-6.206,110.741c-0.205,3.649,1.167,7.229,3.863,10.08c3.08,3.258,7.403,5.126,11.86,5.126  h7.98c4.457,0,8.779-1.868,11.858-5.125C212.104,354.675,213.476,351.095,213.272,347.445z M223.854,190.287  c-0.001-0.599-0.022-1.228-0.063-1.869c-0.005-0.078-0.009-0.154-0.012-0.231c-1.09-15.566-13.993-27.927-29.778-28.153  c-0.042,0.005-0.064,0-0.097-0.001c-0.017,0.001-0.03,0-0.046,0c-0.029-0.001-0.064,0-0.097-0.001c-0.017,0-0.032,0-0.048,0  c-0.014-0.001-0.034,0-0.051,0c-0.016,0-0.029,0-0.045,0c-0.016-0.001-0.038,0-0.056,0c-0.018,0-0.038,0-0.056,0  c-0.016,0-0.031,0.001-0.045,0c-0.016,0-0.033,0-0.051,0c-0.015,0-0.033,0-0.048,0c-0.032,0.001-0.062,0.009-0.096,0.001  c-0.016,0-0.034-0.003-0.047,0c-15.833,0.176-28.788,12.557-29.881,28.155c-0.002,0.063-0.005,0.125-0.009,0.188  c-0.043,0.743-0.064,1.352-0.065,1.913c0,0.012,0,0.024,0,0.036s0,0.024,0,0.036c0.001,0.562,0.022,1.171,0.065,1.914  c0.004,0.063,0.007,0.125,0.009,0.188c1.093,15.599,14.048,27.979,29.881,28.156c0.004,0.004,0.03,0,0.047,0  c0.027-0.009,0.063,0,0.096,0.001c0.016,0,0.033,0,0.048,0c0.019,0.002,0.035,0,0.051,0c0.015,0,0.03,0,0.045,0  c0.004,0,0.008,0,0.012,0c0.029,0,0.059,0,0.087,0c0.019,0,0.031,0,0.047,0c0.018,0.001,0.037,0,0.055,0c0.016,0.002,0.03,0,0.044,0  c0.039,0.001,0.069,0,0.102-0.001c0.015,0,0.033,0,0.049,0c0.001,0,0.002,0,0.003,0c15.83-0.176,28.782-12.557,29.875-28.156  c0.003-0.076,0.007-0.153,0.012-0.229c0.041-0.641,0.062-1.27,0.063-1.87c0-0.012,0-0.025,0-0.038S223.854,190.299,223.854,190.287z   M226.991,155.428c6.644,6.334,11.327,14.43,13.498,23.398l98.997-49.99c3.262-1.647,5.676-4.625,6.797-8.385  c1.281-4.296,0.738-8.974-1.491-12.833l-3.99-6.911c-2.229-3.86-6.008-6.669-10.369-7.708c-3.816-0.907-7.6-0.307-10.659,1.694  L226.991,155.428z M346.284,260.2c-1.121-3.76-3.536-6.739-6.799-8.387l-98.997-49.989c-2.17,8.968-6.853,17.063-13.497,23.398  l92.784,60.734c3.057,2.001,6.841,2.604,10.659,1.695c4.361-1.039,8.14-3.848,10.369-7.708l3.99-6.911  C347.021,269.173,347.565,264.496,346.284,260.2z M135.642,313.894c-0.788-0.324-1.568-0.658-2.344-0.998  c-4.551-1.996-9.86,0.075-11.857,4.627c-1.997,4.552,0.075,9.861,4.627,11.857c0.903,0.396,1.812,0.784,2.729,1.161  c1.12,0.46,2.279,0.679,3.419,0.679c3.54,0,6.897-2.103,8.327-5.58C142.433,321.043,140.24,315.784,135.642,313.894z" fill="#006DF0"/>
<g>
</g>
<g>
</g>
<g>
</g>
<g>
</g>
<g>
</g>
<g>
</g>
<g>
</g>
<g>
</g>
<g>
</g>
<g>
</g>
<g>
</g>
<g>
</g>
<g>
</g>
<g>
</g>
<g>
</g>
</svg>
